<svg xmlns="http://www.w3.org/2000/svg" fill="#dea74c" viewBox="0 0 2834.6 2834.6" style="enable-background:new 0 0 2834.6 2834.6" xml:space="preserve"><path d="M119.3 713.2c8.9-5.4 17.8-10.9 26.8-16.1C191 671 235.9 645 280.9 618.9c69.5-40.3 138.4-81.8 208.8-120.5 27.9-15.3 49.3-37.2 72.6-57.4 56.9-49.4 116.9-94.5 181.3-133.5 37.3-22.6 75.7-43.3 115-62.5 54.7-26.6 111.1-49.1 169-67.1 61.3-19 123.4-34.8 187.2-44 67.1-9.7 134.5-16 202.2-16 37.5 0 75.1 2.5 112.5 5.5 87.3 7.1 172.9 23.3 256.8 48.6 69.2 20.9 136.1 47 200.9 79 47.1 23.3 92.4 49.3 136.5 77.8 46.7 30.2 90.9 63.6 133.2 99.5 36.6 31.1 71.9 63.8 103.7 99.9 16.7 19 35 36.7 50.6 56.6 28.8 36.8 57.1 74 83.7 112.4 28.9 41.7 53.9 85.9 76.6 131.2 21.3 42.5 40.3 86.1 57.1 130.8 31.5 83.8 53.9 169.9 67.1 258.2 6.4 42.6 8.9 85.9 12 129 1.9 26.1 1.7 52.3 1.9 78.5.3 48.1-4.2 95.9-9.4 143.6-9.2 85.5-29.3 168.6-56.1 250-16.9 51.5-37.4 101.6-61 150.4-23.4 48.4-49.6 95.2-78.7 140.5-24.6 38.3-51.2 75-79.5 110.5-39.6 49.6-82.8 95.9-129.3 139-27.8 25.8-56.8 50.6-87.1 73.4-37.3 28.1-75.7 54.9-115.2 79.8-51 32.3-104.6 60.1-160.1 83.8-35.7 15.2-71.9 29.6-108.8 41.7-51 16.8-102.6 32-155.5 41.3-48.6 8.5-97.2 17.3-146.6 19.7-41.5 2-83 4.4-124.5 4.3-68.7-.2-136.7-8.2-204.6-19.2-65.4-10.6-128.8-28.1-191.4-48.7-49.7-16.4-98.1-36.6-145.3-59.5-46.1-22.4-90.8-47-133.9-74.5-62.7-40-121.5-85.1-176.6-135.2-55.1-50.1-105.4-104.5-151.1-163.3-34.9-44.9-66.3-92.1-95.3-141.1-40.9-69.1-74.2-141.6-101.2-216.9-17.7-49.3-33.3-99.4-43.9-150.7-14.5-69.8-25.6-140.1-29-211.4-2.4-51.1-2.5-102.3.8-153.4 4-63.4 13.5-125.8 26-188.1 9.3-46.4 23-91.3 37.3-136.3 19.5-61.4 44.3-120.5 73.9-177.5 16.7-32.1 35.1-63.4 52.6-95.1 2-3.6 4.5-8.4 3.5-11.6-1.8-5.6-8.1-3.7-12.7-3.7-58.2-.1-116.3-.1-174.5-.2h-12.6c-.1-1.3-.3-2.3-.5-3.3zm325.8 228-2.4-.3c-7.8-20.8-15.5-41.7-23.3-62.5-16-42.5-32-85-48.3-127.4-1.4-3.7-5-6.5-7.5-9.8-3 2.8-7 5-9 8.4-13.9 23.3-28.5 46.1-40.6 70.3-19.1 38.2-37.5 76.9-54.2 116.2-13.4 31.7-24.3 64.5-35.2 97.2-18.2 54.8-31.8 110.7-40.8 167.8-8.6 54-15.4 108.2-16.5 162.9-.9 41.5.4 83 1.7 124.5 1.8 54.3 9.8 108 19.8 161.2 16.9 90.4 45 177.7 81.5 262.1 23.6 54.6 51.4 107.1 82.8 157.6 25.6 41.2 53.3 81 83.9 118.7 30.5 37.6 62.4 74 97.1 108 41.2 40.5 84.3 78.6 130.5 113.4 61.6 46.3 126.3 87.6 196 120.6 28.4 13.4 56.9 26.5 85.8 38.8 39 16.6 79.1 30 119.8 42.1 88.8 26.3 179.5 41.1 271.8 47.4 89.8 6.1 179.2.8 268.2-11.3 64.2-8.7 126.9-24.8 188.6-43.9 54.6-16.9 107.7-38.3 159.5-62.8 60.6-28.7 118.4-62.1 173.5-100.1 46-31.8 89.5-66.9 131.1-104.5 59.6-53.8 113-113.1 161.2-177.1 33.6-44.6 63.9-91.6 90.8-140.8 29.8-54.5 56.1-110.4 77.9-168.6 21.1-56.1 37.8-113.5 50.6-172 14.9-67.9 24-136.5 26.8-206.1 2.6-66.1 1-131.9-5.5-197.6-7.1-71.5-22.1-141.5-41.5-210.5-10.2-36.5-22.8-72.5-36.5-107.9-23.5-61.2-51.9-120.3-85.7-176.5-20.6-34.4-43.8-67.4-66.4-100.6-32.6-47.8-70.6-91.2-110.4-132.9-55.7-58.3-116.5-110.8-182.5-157.1-55.9-39.2-114.3-73.9-176-103.4-67.5-32.3-137.1-58.9-209.3-78.7-77.3-21.3-155.6-35.2-235.6-41.5-83.6-6.6-166.9-4.2-250.1 4.5-71 7.4-140.4 23.5-208.7 43.4-70.6 20.5-138.6 48.2-204.2 81.2-55.1 27.7-107.9 59.4-158.2 95.2-43.1 30.7-84.5 63.6-123.2 99.7-3 2.8-5.4 6.9-6.6 10.8-4.7 15.4-9 31-13.2 46.6-17.4 64.5-34.6 129-52 193.5-16.8 62.4-33.7 124.7-50.7 187.1-1.3 5-3.2 9.8-4.8 14.7z" />
<path d="M470 2116.5c319.6-639 637.8-1275.5 957.5-1914.8 318.9 639.8 636.6 1276.9 955.4 1916.5-47.1.5-92.3.1-137.4.1-45.5 0-91-.1-136.5-.1s-91-.1-136.5-.1-91 0-136.5-.1c-45.5 0-91 0-136.5-.1h-681.1c-45.5 0-91 .2-136.5-.1-45.5-.2-90.9-.9-136.4-1.1-45.5-.2-91-.2-136.5-.2-45.1-.1-90.5 0-139 0zm73.8-49c2.6 1.6 3.7 2.7 4.8 2.8 3.9.4 7.8.6 11.8.7l612.7 1.8c122.9.3 245.8.6 368.7 1 125.5.4 251 1.1 376.5 1.6 124.6.4 249.3.7 373.9 1 22.5.1 23.2-1.4 13-21.4-15-29.1-29.9-58.3-44.5-87.6-14.4-28.9-28-58.2-42.4-87-22.7-45.2-46.1-90.1-68.7-135.4-26.5-53.1-52.4-106.5-78.8-159.6-17.5-35.2-35.4-70.2-53.1-105.2-14.6-28.8-29.4-57.5-43.8-86.4-19.1-38.3-37.8-76.7-56.9-115-14.4-28.9-29.3-57.5-43.8-86.4-14.8-29.7-29.3-59.5-44.2-89.2-16.4-32.8-33.2-65.3-49.6-98.1s-32.4-65.8-48.7-98.6c-15.1-30.5-30.4-60.8-45.7-91.3l-24-48c-10.6-21-21.5-41.9-32-63-17.1-34.4-34-68.9-51.1-103.3-13.8-27.7-27.9-55.3-41.8-83-12.9-25.8-25.6-51.6-38.5-77.4-15-30-30.2-60-45.3-90-5.9-11.7-11.4-23.6-17.4-35.2-4-7.8-8.8-7.9-13.5-.7-1.2 1.8-2 3.9-3 5.8-9 18.4-17.9 36.9-27.1 55.2-19.1 37.8-38.6 75.4-57.7 113.2-20 39.8-39.4 79.8-59.3 119.6-19.2 38.2-38.9 76.2-58.2 114.3-18.7 37-37.1 74.1-55.6 111.2-6 12.1-12.1 24.2-18.1 36.3-18.4 37.2-36.7 74.4-55.3 111.4-19.6 39-39.6 77.8-59.2 116.8-14.3 28.4-28.3 57.1-42.5 85.5-9.2 18.4-18.8 36.5-28 54.9-18.5 37.1-36.7 74.4-55.4 111.4-18.4 36.6-37.3 73-55.8 109.7-15.3 30.4-30 61.1-45.3 91.5-20.2 40.2-40.7 80.2-60.9 120.4-18.6 37.1-36.6 74.4-55.1 111.4-25.6 51.1-51.4 102.1-77.2 153.2-15.9 31.6-32 63.1-47.9 94.7-5.9 11.7-12.6 23-16 36.4z" />
<path d="M1382.2 1332.2c-3.4-3.7-5.9-7.1-9.1-9.8-83.4-69.6-128-159.8-141.1-266.6-7-56.7-7.6-113.4 3.1-169.7 9.4-49.6 27-95.9 58.6-135.9 25.6-32.4 57.3-56.6 98.3-65.8 51.7-11.6 98.1 0 138.1 34.7 35.9 31.1 56.2 71.9 69.7 116.6 14 46.5 18.4 94.3 17.4 142.6-1.2 56.9-11.3 112-33.8 164.6-24.2 56.4-59.8 104.4-106.3 144.5-4.9 4.2-9.6 8.6-15.7 14.2 4.7 4.2 8.2 7.8 12.2 10.8 33.4 25.7 64.2 54 90.9 86.7 46.8 57.5 73.4 123.4 82.7 196.7 5.6 44.4 7 88.9 2.4 133.5-6.5 62.6-23.3 121.8-60.7 173.7-30.2 41.9-69.4 71.7-120.7 82.3-78.8 16.2-159.6-7.8-210.7-81.4-24.9-35.8-39.7-75.8-47.6-118.3-12.5-67.3-13.3-134.7 1.2-201.9 15.3-71.1 49.3-132.4 99.2-184.7 19.6-20.5 41.5-38.7 62.4-57.9 2.8-2.7 5.7-5.3 9.5-8.9zm24.8 16.1c-4.8 3.8-9.2 6.6-12.9 10.2-12.7 12-25.8 23.7-37.8 36.3-35.3 37-64.6 78.2-82.2 126.7-31.3 86.3-33.7 174.3-13.6 263.3 8.8 38.8 24.5 74.6 50.4 105.4 59.2 70.6 167.9 71.9 228.7 2.9 22.4-25.4 37.4-54.7 47.2-86.8 15.5-50.8 19.8-102.7 16.3-155.5-4.3-65.4-24.8-124.7-63.5-177.6-31-42.4-69.3-77.3-111-108.9-7-5.5-14-10.5-21.6-16zm166.8-376.1c.1-50.2-6.1-97.6-23.8-143-10.5-27.2-24.9-52.1-46.9-71.7-28.1-25.1-60.7-35.4-98.1-28.1-29.6 5.7-53.1 21.7-72.6 44-23.8 27.2-38.5 59.1-47.6 93.8-17 64.7-16 129.8-2.3 194.7 19.6 93.2 72.9 163.9 148.4 219.5 5.6 4.1 9.7 3.9 14.8-1 39.3-38 72.5-80.4 94.5-130.9 24.8-57.1 32.7-117.4 33.6-177.3z" /></svg>